# xmcd CD Database Entry
#
# Track frame offsets:
# 150
# 10825
# 22337
# 36510
# 47512
# 60050
# 71132
# 81432
# 92960
# 104090
# 116795
# 132890
# 147720
# 160440
# 171927
# 182160
#
# Disc length: 2625 seconds
#
# Revision: 1
# Processed by: cddbd v1.4PL0 Copyright (c) Steve Scherf et al.
# Submitted via: tcd 2.0b
#
DISCID=f10a3f10
DTITLE=Osborne Brothers - Dayton To Knoxville
DYEAR=1900
DGENRE=
TTITLE0=Y'all come
TTITLE1=My tears don't show
TTITLE2=I'm thiining tonight of my blue eyes
TTITLE3=Take my ring from your finger
TTITLE4=Alabama
TTITLE5=Wrap my body in old glory when I go
TTITLE6=Seven year blues
TTITLE7=I'm gonna love you one more time
TTITLE8=Is it too late now?
TTITLE9=I wonder where you are tonight
TTITLE10=Litter rosewood casket
TTITLE11=Love is a danger
TTITLE12=I cried again
TTITLE13=I'm waiting to hear you call me darling
TTITLE14=Can't you hear Jerusalem mourn
TTITLE15=Across the sea blues
EXTD=
EXTT0=
EXTT1=
EXTT2=
EXTT3=
EXTT4=
EXTT5=
EXTT6=
EXTT7=
EXTT8=
EXTT9=
EXTT10=
EXTT11=
EXTT12=
EXTT13=
EXTT14=
EXTT15=
PLAYORDER=
